{"title":"Dancing With the Stars US-S19E01 -GHOST-","uid":11043126,"size":2211748540,"categoryP":"video","categoryS":"tv_shows","magnet":"?xt=urn:btih:5cc3f6a0c2fb0de6b753f8c076b60574867d7226&amp;dn=Dancing+With+the+Stars+US-S19E01+-GHOST-&amp;tr=udp%3A%2F%2Ftracker.openbittorrent.com%3A80&amp;tr=udp%3A%2F%2Fopen.demonii.com%3A1337&amp;tr=udp%3A%2F%2Ftracker.coppersurfer.tk%3A6969&amp;tr=udp%3A%2F%2Fexodus.desync.com%3A6969","seeders":0,"leechers":2,"uploader":"---GHOST---","files":6,"time":1410906498,"description":"Dancing With the Stars US-S19E01 -GHOST-\n\n\nSeason 19 Premiere\n \n\n\nSnapshot:\n &lt;a href=&quot;\nhttp://bayimg.com/DaAbhaagh&quot; rel=&quot;nofollow&quot; target=&quot;_NEW&quot;&gt;\nhttp://bayimg.com/DaAbhaagh&lt;/a&gt; &lt;a href=&quot;\nhttp://bayimg.com/dAABlAAGH&quot; rel=&quot;nofollow&quot; target=&quot;_NEW&quot;&gt;\nhttp://bayimg.com/dAABlAAGH&lt;/a&gt; &lt;a href=&quot;\nhttp://bayimg.com/daAbmaaGH&quot; rel=&quot;nofollow&quot; target=&quot;_NEW&quot;&gt;\nhttp://bayimg.com/daAbmaaGH&lt;/a&gt; &lt;a href=&quot;\nhttp://bayimg.com/daaBnaAGH&quot; rel=&quot;nofollow&quot; target=&quot;_NEW&quot;&gt;\nhttp://bayimg.com/daaBnaAGH&lt;/a&gt;\n\n----------------------------------------\n\nGeneral\n\nComplete name                            : Dancing With the Stars US-S19E01 -GHOST-.mp4\nFormat                                   : MPEG-4\nFormat profile                           : Base Media\nCodec ID                                 : isom\nFile size                                : 2.06 GiB\nDuration                                 : 1h 24mn\nOverall bit rate mode                    : Variable\nOverall bit rate                         : 3 503 Kbps\nEncoded date                             : UTC 2014-09-16 01:06:41\nTagged date                              : UTC 2014-09-16 01:06:41\nWriting application                      : Lavf53.24.2\n\nVideo\n\nID                                       : 1\nFormat                                   : AVC\nFormat/Info                              : Advanced Video Codec\nFormat profile                           : &lt;a class=&quot;__cf_email__&quot; href=&quot;/cdn-cgi/l/email-protection&quot; data-cfemail=&quot;cb89aab8aea7a2a5ae8b87f8e5fb&quot;&gt;[email&amp;#160;protected]&lt;/a&gt;&lt;script data-cfhash='f9e31' type=&quot;text/javascript&quot;&gt;\n/* &lt;![CDATA[ */!function(){try{var t=&quot;currentScript&quot;in document?document.currentScript:function(){for(var t=document.getElementsByTagName(&quot;script&quot;),e=t.length;e--;)if(t[e].getAttribute(&quot;data-cfhash&quot;))return t[e]}();if(t&amp;&amp;t.previousSibling){var e,r,n,i,c=t.previousSibling,a=c.getAttribute(&quot;data-cfemail&quot;);if(a){for(e=&quot;&quot;,r=parseInt(a.substr(0,2),16),n=2;a.length-n;n+=2)i=parseInt(a.substr(n,2),16)^r,e+=String.fromCharCode(i);e=document.createTextNode(e),c.parentNode.replaceChild(e,c)}t.parentNode.removeChild(t);}}catch(u){}}()/* ]]&gt; */&lt;/script&gt;\nFormat settings, CABAC                   : No\nFormat settings, ReFrames                : 1 frame\nFormat settings, GOP                     : M=1, N=12\nCodec ID                                 : avc1\nCodec ID/Info                            : Advanced Video Coding\nDuration                                 : 1h 24mn\nBit rate                                 : 3 333 Kbps\nWidth                                    : 720 pixels\nHeight                                   : 400 pixels\nDisplay aspect ratio                     : 16:9\nFrame rate mode                          : Constant\nFrame rate                               : 30.000 fps\nColor space                              : YUV\nChroma subsampling                       : 4:2:0\nBit depth                                : 8 bits\nScan type                                : Progressive\nBits/(Pixel*Frame)                       : 0.386\nStream size                              : 1.97 GiB (96%)\nWriting library                          : x264 core 120\nLanguage                                 : English\nEncoded date                             : UTC 2014-09-16 01:06:41\nTagged date                              : UTC 2014-09-16 01:06:41\n\nAudio\n\nID                                       : 2\nFormat                                   : AAC\nFormat/Info                              : Advanced Audio Codec\nFormat profile                           : LC\nCodec ID                                 : 40\nDuration                                 : 1h 24mn\nBit rate mode                            : Variable\nBit rate                                 : 147 Kbps\nMaximum bit rate                         : 320 Kbps\nChannel(s)                               : 2 channels\nChannel(s)_Original                      : 6 channels\nChannel positions                        : Front: L C R, Side: L R, LFE\nSampling rate                            : 48.0 KHz\nCompression mode                         : Lossy\nStream size                              : 88.5 MiB (4%)\nLanguage                                 : English\nEncoded date                             : UTC 2014-09-16 01:06:41\nTagged date                              : UTC 2014-09-16 01:06:41\n\n\n----------------------------------------\n\n Enjoy\n\n~GHOST~","torrent":{"xt":"urn:btih:5cc3f6a0c2fb0de6b753f8c076b60574867d7226","amp;dn":"Dancing+With+the+Stars+US-S19E01+-GHOST-","amp;tr":["udp%3A%2F%2Ftracker.openbittorrent.com%3A80","udp%3A%2F%2Fopen.demonii.com%3A1337","udp%3A%2F%2Ftracker.coppersurfer.tk%3A6969","udp%3A%2F%2Fexodus.desync.com%3A6969"],"infoHash":"5cc3f6a0c2fb0de6b753f8c076b60574867d7226","infoHashBuffer":{"type":"Buffer","data":[92,195,246,160,194,251,13,230,183,83,248,192,118,182,5,116,134,125,114,38]},"announce":[],"urlList":[]}}